<svg xmlns="http://www.w3.org/2000/svg" version="1.1" viewBox="0 0 386 386 ">
<style type="text/css" >
     <![CDATA[
      rect.pixel {
          fill:   #ff0000;
      }
    ]]>
  </style>

   <rect width="386" height="386" fill="rgb(128, 128, 128)"/>
   <rect x="1" y="1" width="384.1" height="384.1" fill="rgb(255, 255, 255)"/>

  <rect class="pixel" x="1" y="1" width=".9" height=".9"/>
  <rect class="pixel" x="2" y="2" width=".9" height=".9"/>
  <rect class="pixel" x="3" y="3" width=".9" height=".9"/>
  <rect class="pixel" x="4" y="4" width=".9" height=".9"/>
  <rect class="pixel" x="5" y="5" width=".9" height=".9"/>
  <rect class="pixel" x="6" y="6" width=".9" height=".9"/>
  <rect class="pixel" x="7" y="7" width=".9" height=".9"/>
  <rect class="pixel" x="8" y="8" width=".9" height=".9"/>
  <rect class="pixel" x="9" y="9" width=".9" height=".9"/>
  <rect class="pixel" x="10" y="10" width=".9" height=".9"/>
  <rect class="pixel" x="11" y="11" width=".9" height=".9"/>
  <rect class="pixel" x="12" y="12" width=".9" height=".9"/>
  <rect class="pixel" x="13" y="13" width=".9" height=".9"/>
  <rect class="pixel" x="14" y="14" width=".9" height=".9"/>
  <rect class="pixel" x="15" y="15" width=".9" height=".9"/>
  <rect class="pixel" x="16" y="16" width=".9" height=".9"/>
  <rect class="pixel" x="17" y="17" width=".9" height=".9"/>
  <rect class="pixel" x="18" y="18" width=".9" height=".9"/>
  <rect class="pixel" x="19" y="19" width=".9" height=".9"/>
  <rect class="pixel" x="20" y="20" width=".9" height=".9"/>
  <rect class="pixel" x="21" y="21" width=".9" height=".9"/>
  <rect class="pixel" x="22" y="22" width=".9" height=".9"/>
  <rect class="pixel" x="23" y="23" width=".9" height=".9"/>
  <rect class="pixel" x="24" y="24" width=".9" height=".9"/>
  <rect class="pixel" x="25" y="25" width=".9" height=".9"/>
  <rect class="pixel" x="26" y="26" width=".9" height=".9"/>
  <rect class="pixel" x="27" y="27" width=".9" height=".9"/>
  <rect class="pixel" x="28" y="28" width=".9" height=".9"/>
  <rect class="pixel" x="29" y="29" width=".9" height=".9"/>
  <rect class="pixel" x="30" y="30" width=".9" height=".9"/>
  <rect class="pixel" x="31" y="31" width=".9" height=".9"/>
  <rect class="pixel" x="32" y="32" width=".9" height=".9"/>
  <rect class="pixel" x="33" y="33" width=".9" height=".9"/>
  <rect class="pixel" x="34" y="34" width=".9" height=".9"/>
  <rect class="pixel" x="35" y="35" width=".9" height=".9"/>
  <rect class="pixel" x="36" y="36" width=".9" height=".9"/>
  <rect class="pixel" x="37" y="37" width=".9" height=".9"/>
  <rect class="pixel" x="38" y="38" width=".9" height=".9"/>
  <rect class="pixel" x="39" y="39" width=".9" height=".9"/>
  <rect class="pixel" x="40" y="40" width=".9" height=".9"/>
  <rect class="pixel" x="41" y="41" width=".9" height=".9"/>
  <rect class="pixel" x="42" y="42" width=".9" height=".9"/>
  <rect class="pixel" x="43" y="43" width=".9" height=".9"/>
  <rect class="pixel" x="44" y="44" width=".9" height=".9"/>
  <rect class="pixel" x="45" y="45" width=".9" height=".9"/>
  <rect class="pixel" x="46" y="46" width=".9" height=".9"/>
  <rect class="pixel" x="47" y="47" width=".9" height=".9"/>
  <rect class="pixel" x="48" y="48" width=".9" height=".9"/>
  <rect class="pixel" x="49" y="49" width=".9" height=".9"/>
  <rect class="pixel" x="50" y="50" width=".9" height=".9"/>
  <rect class="pixel" x="51" y="51" width=".9" height=".9"/>
  <rect class="pixel" x="52" y="52" width=".9" height=".9"/>
  <rect class="pixel" x="53" y="53" width=".9" height=".9"/>
  <rect class="pixel" x="54" y="54" width=".9" height=".9"/>
  <rect class="pixel" x="55" y="55" width=".9" height=".9"/>
  <rect class="pixel" x="56" y="56" width=".9" height=".9"/>
  <rect class="pixel" x="57" y="57" width=".9" height=".9"/>
  <rect class="pixel" x="58" y="58" width=".9" height=".9"/>
  <rect class="pixel" x="59" y="59" width=".9" height=".9"/>
  <rect class="pixel" x="60" y="60" width=".9" height=".9"/>
  <rect class="pixel" x="61" y="61" width=".9" height=".9"/>
  <rect class="pixel" x="62" y="62" width=".9" height=".9"/>
  <rect class="pixel" x="63" y="63" width=".9" height=".9"/>
  <rect class="pixel" x="64" y="64" width=".9" height=".9"/>
  <rect class="pixel" x="65" y="65" width=".9" height=".9"/>
  <rect class="pixel" x="66" y="66" width=".9" height=".9"/>
  <rect class="pixel" x="67" y="67" width=".9" height=".9"/>
  <rect class="pixel" x="68" y="68" width=".9" height=".9"/>
  <rect class="pixel" x="69" y="69" width=".9" height=".9"/>
  <rect class="pixel" x="70" y="70" width=".9" height=".9"/>
  <rect class="pixel" x="71" y="71" width=".9" height=".9"/>
  <rect class="pixel" x="72" y="72" width=".9" height=".9"/>
  <rect class="pixel" x="73" y="73" width=".9" height=".9"/>
  <rect class="pixel" x="74" y="74" width=".9" height=".9"/>
  <rect class="pixel" x="75" y="75" width=".9" height=".9"/>
  <rect class="pixel" x="76" y="76" width=".9" height=".9"/>
  <rect class="pixel" x="77" y="77" width=".9" height=".9"/>
  <rect class="pixel" x="78" y="78" width=".9" height=".9"/>
  <rect class="pixel" x="79" y="79" width=".9" height=".9"/>
  <rect class="pixel" x="80" y="80" width=".9" height=".9"/>
  <rect class="pixel" x="81" y="81" width=".9" height=".9"/>
  <rect class="pixel" x="82" y="82" width=".9" height=".9"/>
  <rect class="pixel" x="83" y="83" width=".9" height=".9"/>
  <rect class="pixel" x="84" y="84" width=".9" height=".9"/>
  <rect class="pixel" x="85" y="85" width=".9" height=".9"/>
  <rect class="pixel" x="86" y="86" width=".9" height=".9"/>
  <rect class="pixel" x="87" y="87" width=".9" height=".9"/>
  <rect class="pixel" x="88" y="88" width=".9" height=".9"/>
  <rect class="pixel" x="89" y="89" width=".9" height=".9"/>
  <rect class="pixel" x="90" y="90" width=".9" height=".9"/>
  <rect class="pixel" x="91" y="91" width=".9" height=".9"/>
  <rect class="pixel" x="92" y="92" width=".9" height=".9"/>
  <rect class="pixel" x="93" y="93" width=".9" height=".9"/>
  <rect class="pixel" x="94" y="94" width=".9" height=".9"/>
  <rect class="pixel" x="95" y="95" width=".9" height=".9"/>
  <rect class="pixel" x="96" y="96" width=".9" height=".9"/>
  <rect class="pixel" x="97" y="97" width=".9" height=".9"/>
  <rect class="pixel" x="98" y="98" width=".9" height=".9"/>
  <rect class="pixel" x="99" y="99" width=".9" height=".9"/>
  <rect class="pixel" x="100" y="100" width=".9" height=".9"/>
  <rect class="pixel" x="101" y="101" width=".9" height=".9"/>
  <rect class="pixel" x="102" y="102" width=".9" height=".9"/>
  <rect class="pixel" x="103" y="103" width=".9" height=".9"/>
  <rect class="pixel" x="104" y="104" width=".9" height=".9"/>
  <rect class="pixel" x="105" y="105" width=".9" height=".9"/>
  <rect class="pixel" x="106" y="106" width=".9" height=".9"/>
  <rect class="pixel" x="107" y="107" width=".9" height=".9"/>
  <rect class="pixel" x="108" y="108" width=".9" height=".9"/>
  <rect class="pixel" x="109" y="109" width=".9" height=".9"/>
  <rect class="pixel" x="110" y="110" width=".9" height=".9"/>
  <rect class="pixel" x="111" y="111" width=".9" height=".9"/>
  <rect class="pixel" x="112" y="112" width=".9" height=".9"/>
  <rect class="pixel" x="113" y="113" width=".9" height=".9"/>
  <rect class="pixel" x="114" y="114" width=".9" height=".9"/>
  <rect class="pixel" x="115" y="115" width=".9" height=".9"/>
  <rect class="pixel" x="116" y="116" width=".9" height=".9"/>
  <rect class="pixel" x="117" y="117" width=".9" height=".9"/>
  <rect class="pixel" x="118" y="118" width=".9" height=".9"/>
  <rect class="pixel" x="119" y="119" width=".9" height=".9"/>
  <rect class="pixel" x="120" y="120" width=".9" height=".9"/>
  <rect class="pixel" x="121" y="121" width=".9" height=".9"/>
  <rect class="pixel" x="122" y="122" width=".9" height=".9"/>
  <rect class="pixel" x="123" y="123" width=".9" height=".9"/>
  <rect class="pixel" x="124" y="124" width=".9" height=".9"/>
  <rect class="pixel" x="125" y="125" width=".9" height=".9"/>
  <rect class="pixel" x="126" y="126" width=".9" height=".9"/>
  <rect class="pixel" x="127" y="127" width=".9" height=".9"/>
  <rect class="pixel" x="128" y="128" width=".9" height=".9"/>
  <rect class="pixel" x="129" y="129" width=".9" height=".9"/>
  <rect class="pixel" x="130" y="130" width=".9" height=".9"/>
  <rect class="pixel" x="131" y="131" width=".9" height=".9"/>
  <rect class="pixel" x="132" y="132" width=".9" height=".9"/>
  <rect class="pixel" x="133" y="133" width=".9" height=".9"/>
  <rect class="pixel" x="134" y="134" width=".9" height=".9"/>
  <rect class="pixel" x="135" y="135" width=".9" height=".9"/>
  <rect class="pixel" x="136" y="136" width=".9" height=".9"/>
  <rect class="pixel" x="137" y="137" width=".9" height=".9"/>
  <rect class="pixel" x="138" y="138" width=".9" height=".9"/>
  <rect class="pixel" x="139" y="139" width=".9" height=".9"/>
  <rect class="pixel" x="140" y="140" width=".9" height=".9"/>
  <rect class="pixel" x="141" y="141" width=".9" height=".9"/>
  <rect class="pixel" x="142" y="142" width=".9" height=".9"/>
  <rect class="pixel" x="143" y="143" width=".9" height=".9"/>
  <rect class="pixel" x="144" y="144" width=".9" height=".9"/>
  <rect class="pixel" x="145" y="145" width=".9" height=".9"/>
  <rect class="pixel" x="146" y="146" width=".9" height=".9"/>
  <rect class="pixel" x="147" y="147" width=".9" height=".9"/>
  <rect class="pixel" x="148" y="148" width=".9" height=".9"/>
  <rect class="pixel" x="149" y="149" width=".9" height=".9"/>
  <rect class="pixel" x="150" y="150" width=".9" height=".9"/>
  <rect class="pixel" x="151" y="151" width=".9" height=".9"/>
  <rect class="pixel" x="152" y="152" width=".9" height=".9"/>
  <rect class="pixel" x="153" y="153" width=".9" height=".9"/>
  <rect class="pixel" x="154" y="154" width=".9" height=".9"/>
  <rect class="pixel" x="155" y="155" width=".9" height=".9"/>
  <rect class="pixel" x="156" y="156" width=".9" height=".9"/>
  <rect class="pixel" x="157" y="157" width=".9" height=".9"/>
  <rect class="pixel" x="158" y="158" width=".9" height=".9"/>
  <rect class="pixel" x="159" y="159" width=".9" height=".9"/>
  <rect class="pixel" x="160" y="160" width=".9" height=".9"/>
  <rect class="pixel" x="161" y="161" width=".9" height=".9"/>
  <rect class="pixel" x="162" y="162" width=".9" height=".9"/>
  <rect class="pixel" x="163" y="163" width=".9" height=".9"/>
  <rect class="pixel" x="164" y="164" width=".9" height=".9"/>
  <rect class="pixel" x="165" y="165" width=".9" height=".9"/>
  <rect class="pixel" x="166" y="166" width=".9" height=".9"/>
  <rect class="pixel" x="167" y="167" width=".9" height=".9"/>
  <rect class="pixel" x="168" y="168" width=".9" height=".9"/>
  <rect class="pixel" x="169" y="169" width=".9" height=".9"/>
  <rect class="pixel" x="170" y="170" width=".9" height=".9"/>
  <rect class="pixel" x="171" y="171" width=".9" height=".9"/>
  <rect class="pixel" x="172" y="172" width=".9" height=".9"/>
  <rect class="pixel" x="173" y="173" width=".9" height=".9"/>
  <rect class="pixel" x="174" y="174" width=".9" height=".9"/>
  <rect class="pixel" x="175" y="175" width=".9" height=".9"/>
  <rect class="pixel" x="176" y="176" width=".9" height=".9"/>
  <rect class="pixel" x="177" y="177" width=".9" height=".9"/>
  <rect class="pixel" x="178" y="178" width=".9" height=".9"/>
  <rect class="pixel" x="179" y="179" width=".9" height=".9"/>
  <rect class="pixel" x="180" y="180" width=".9" height=".9"/>
  <rect class="pixel" x="181" y="181" width=".9" height=".9"/>
  <rect class="pixel" x="182" y="182" width=".9" height=".9"/>
  <rect class="pixel" x="183" y="183" width=".9" height=".9"/>
  <rect class="pixel" x="184" y="184" width=".9" height=".9"/>
  <rect class="pixel" x="185" y="185" width=".9" height=".9"/>
  <rect class="pixel" x="186" y="186" width=".9" height=".9"/>
  <rect class="pixel" x="187" y="187" width=".9" height=".9"/>
  <rect class="pixel" x="188" y="188" width=".9" height=".9"/>
  <rect class="pixel" x="189" y="189" width=".9" height=".9"/>
  <rect class="pixel" x="190" y="190" width=".9" height=".9"/>
  <rect class="pixel" x="191" y="191" width=".9" height=".9"/>
  <rect class="pixel" x="192" y="192" width=".9" height=".9"/>
  <rect class="pixel" x="193" y="193" width=".9" height=".9"/>
  <rect class="pixel" x="194" y="194" width=".9" height=".9"/>
  <rect class="pixel" x="195" y="195" width=".9" height=".9"/>
  <rect class="pixel" x="196" y="196" width=".9" height=".9"/>
  <rect class="pixel" x="197" y="197" width=".9" height=".9"/>
  <rect class="pixel" x="198" y="198" width=".9" height=".9"/>
  <rect class="pixel" x="199" y="199" width=".9" height=".9"/>
  <rect class="pixel" x="200" y="200" width=".9" height=".9"/>
  <rect class="pixel" x="201" y="201" width=".9" height=".9"/>
  <rect class="pixel" x="202" y="202" width=".9" height=".9"/>
  <rect class="pixel" x="203" y="203" width=".9" height=".9"/>
  <rect class="pixel" x="204" y="204" width=".9" height=".9"/>
  <rect class="pixel" x="205" y="205" width=".9" height=".9"/>
  <rect class="pixel" x="206" y="206" width=".9" height=".9"/>
  <rect class="pixel" x="207" y="207" width=".9" height=".9"/>
  <rect class="pixel" x="208" y="208" width=".9" height=".9"/>
  <rect class="pixel" x="209" y="209" width=".9" height=".9"/>
  <rect class="pixel" x="210" y="210" width=".9" height=".9"/>
  <rect class="pixel" x="211" y="211" width=".9" height=".9"/>
  <rect class="pixel" x="212" y="212" width=".9" height=".9"/>
  <rect class="pixel" x="213" y="213" width=".9" height=".9"/>
  <rect class="pixel" x="214" y="214" width=".9" height=".9"/>
  <rect class="pixel" x="215" y="215" width=".9" height=".9"/>
  <rect class="pixel" x="216" y="216" width=".9" height=".9"/>
  <rect class="pixel" x="217" y="217" width=".9" height=".9"/>
  <rect class="pixel" x="218" y="218" width=".9" height=".9"/>
  <rect class="pixel" x="219" y="219" width=".9" height=".9"/>
  <rect class="pixel" x="220" y="220" width=".9" height=".9"/>
  <rect class="pixel" x="221" y="221" width=".9" height=".9"/>
  <rect class="pixel" x="222" y="222" width=".9" height=".9"/>
  <rect class="pixel" x="223" y="223" width=".9" height=".9"/>
  <rect class="pixel" x="224" y="224" width=".9" height=".9"/>
  <rect class="pixel" x="225" y="225" width=".9" height=".9"/>
  <rect class="pixel" x="226" y="226" width=".9" height=".9"/>
  <rect class="pixel" x="227" y="227" width=".9" height=".9"/>
  <rect class="pixel" x="228" y="228" width=".9" height=".9"/>
  <rect class="pixel" x="229" y="229" width=".9" height=".9"/>
  <rect class="pixel" x="230" y="230" width=".9" height=".9"/>
  <rect class="pixel" x="231" y="231" width=".9" height=".9"/>
  <rect class="pixel" x="232" y="232" width=".9" height=".9"/>
  <rect class="pixel" x="233" y="233" width=".9" height=".9"/>
  <rect class="pixel" x="234" y="234" width=".9" height=".9"/>
  <rect class="pixel" x="235" y="235" width=".9" height=".9"/>
  <rect class="pixel" x="236" y="236" width=".9" height=".9"/>
  <rect class="pixel" x="237" y="237" width=".9" height=".9"/>
  <rect class="pixel" x="238" y="238" width=".9" height=".9"/>
  <rect class="pixel" x="239" y="239" width=".9" height=".9"/>
  <rect class="pixel" x="240" y="240" width=".9" height=".9"/>
  <rect class="pixel" x="241" y="241" width=".9" height=".9"/>
  <rect class="pixel" x="242" y="242" width=".9" height=".9"/>
  <rect class="pixel" x="243" y="243" width=".9" height=".9"/>
  <rect class="pixel" x="244" y="244" width=".9" height=".9"/>
  <rect class="pixel" x="245" y="245" width=".9" height=".9"/>
  <rect class="pixel" x="246" y="246" width=".9" height=".9"/>
  <rect class="pixel" x="247" y="247" width=".9" height=".9"/>
  <rect class="pixel" x="248" y="248" width=".9" height=".9"/>
  <rect class="pixel" x="249" y="249" width=".9" height=".9"/>
  <rect class="pixel" x="250" y="250" width=".9" height=".9"/>
  <rect class="pixel" x="251" y="251" width=".9" height=".9"/>
  <rect class="pixel" x="252" y="252" width=".9" height=".9"/>
  <rect class="pixel" x="253" y="253" width=".9" height=".9"/>
  <rect class="pixel" x="254" y="254" width=".9" height=".9"/>
  <rect class="pixel" x="255" y="255" width=".9" height=".9"/>
  <rect class="pixel" x="256" y="256" width=".9" height=".9"/>
  <rect class="pixel" x="257" y="257" width=".9" height=".9"/>
  <rect class="pixel" x="258" y="258" width=".9" height=".9"/>
  <rect class="pixel" x="259" y="259" width=".9" height=".9"/>
  <rect class="pixel" x="260" y="260" width=".9" height=".9"/>
  <rect class="pixel" x="261" y="261" width=".9" height=".9"/>
  <rect class="pixel" x="262" y="262" width=".9" height=".9"/>
  <rect class="pixel" x="263" y="263" width=".9" height=".9"/>
  <rect class="pixel" x="264" y="264" width=".9" height=".9"/>
  <rect class="pixel" x="265" y="265" width=".9" height=".9"/>
  <rect class="pixel" x="266" y="266" width=".9" height=".9"/>
  <rect class="pixel" x="267" y="267" width=".9" height=".9"/>
  <rect class="pixel" x="268" y="268" width=".9" height=".9"/>
  <rect class="pixel" x="269" y="269" width=".9" height=".9"/>
  <rect class="pixel" x="270" y="270" width=".9" height=".9"/>
  <rect class="pixel" x="271" y="271" width=".9" height=".9"/>
  <rect class="pixel" x="272" y="272" width=".9" height=".9"/>
  <rect class="pixel" x="273" y="273" width=".9" height=".9"/>
  <rect class="pixel" x="274" y="274" width=".9" height=".9"/>
  <rect class="pixel" x="275" y="275" width=".9" height=".9"/>
  <rect class="pixel" x="276" y="276" width=".9" height=".9"/>
  <rect class="pixel" x="277" y="277" width=".9" height=".9"/>
  <rect class="pixel" x="278" y="278" width=".9" height=".9"/>
  <rect class="pixel" x="279" y="279" width=".9" height=".9"/>
  <rect class="pixel" x="280" y="280" width=".9" height=".9"/>
  <rect class="pixel" x="281" y="281" width=".9" height=".9"/>
  <rect class="pixel" x="282" y="282" width=".9" height=".9"/>
  <rect class="pixel" x="283" y="283" width=".9" height=".9"/>
  <rect class="pixel" x="284" y="284" width=".9" height=".9"/>
  <rect class="pixel" x="285" y="285" width=".9" height=".9"/>
  <rect class="pixel" x="286" y="286" width=".9" height=".9"/>
  <rect class="pixel" x="287" y="287" width=".9" height=".9"/>
  <rect class="pixel" x="288" y="288" width=".9" height=".9"/>
  <rect class="pixel" x="289" y="289" width=".9" height=".9"/>
  <rect class="pixel" x="290" y="290" width=".9" height=".9"/>
  <rect class="pixel" x="291" y="291" width=".9" height=".9"/>
  <rect class="pixel" x="292" y="292" width=".9" height=".9"/>
  <rect class="pixel" x="293" y="293" width=".9" height=".9"/>
  <rect class="pixel" x="294" y="294" width=".9" height=".9"/>
  <rect class="pixel" x="295" y="295" width=".9" height=".9"/>
  <rect class="pixel" x="296" y="296" width=".9" height=".9"/>
  <rect class="pixel" x="297" y="297" width=".9" height=".9"/>
  <rect class="pixel" x="298" y="298" width=".9" height=".9"/>
  <rect class="pixel" x="299" y="299" width=".9" height=".9"/>
  <rect class="pixel" x="300" y="300" width=".9" height=".9"/>
  <rect class="pixel" x="301" y="301" width=".9" height=".9"/>
  <rect class="pixel" x="302" y="302" width=".9" height=".9"/>
  <rect class="pixel" x="303" y="303" width=".9" height=".9"/>
  <rect class="pixel" x="304" y="304" width=".9" height=".9"/>
  <rect class="pixel" x="305" y="305" width=".9" height=".9"/>
  <rect class="pixel" x="306" y="306" width=".9" height=".9"/>
  <rect class="pixel" x="307" y="307" width=".9" height=".9"/>
  <rect class="pixel" x="308" y="308" width=".9" height=".9"/>
  <rect class="pixel" x="309" y="309" width=".9" height=".9"/>
  <rect class="pixel" x="310" y="310" width=".9" height=".9"/>
  <rect class="pixel" x="311" y="311" width=".9" height=".9"/>
  <rect class="pixel" x="312" y="312" width=".9" height=".9"/>
  <rect class="pixel" x="313" y="313" width=".9" height=".9"/>
  <rect class="pixel" x="314" y="314" width=".9" height=".9"/>
  <rect class="pixel" x="315" y="315" width=".9" height=".9"/>
  <rect class="pixel" x="316" y="316" width=".9" height=".9"/>
  <rect class="pixel" x="317" y="317" width=".9" height=".9"/>
  <rect class="pixel" x="318" y="318" width=".9" height=".9"/>
  <rect class="pixel" x="319" y="319" width=".9" height=".9"/>
  <rect class="pixel" x="320" y="320" width=".9" height=".9"/>
  <rect class="pixel" x="321" y="321" width=".9" height=".9"/>
  <rect class="pixel" x="322" y="322" width=".9" height=".9"/>
  <rect class="pixel" x="323" y="323" width=".9" height=".9"/>
  <rect class="pixel" x="324" y="324" width=".9" height=".9"/>
  <rect class="pixel" x="325" y="325" width=".9" height=".9"/>
  <rect class="pixel" x="326" y="326" width=".9" height=".9"/>
  <rect class="pixel" x="327" y="327" width=".9" height=".9"/>
  <rect class="pixel" x="328" y="328" width=".9" height=".9"/>
  <rect class="pixel" x="329" y="329" width=".9" height=".9"/>
  <rect class="pixel" x="330" y="330" width=".9" height=".9"/>
  <rect class="pixel" x="331" y="331" width=".9" height=".9"/>
  <rect class="pixel" x="332" y="332" width=".9" height=".9"/>
  <rect class="pixel" x="333" y="333" width=".9" height=".9"/>
  <rect class="pixel" x="334" y="334" width=".9" height=".9"/>
  <rect class="pixel" x="335" y="335" width=".9" height=".9"/>
  <rect class="pixel" x="336" y="336" width=".9" height=".9"/>
  <rect class="pixel" x="337" y="337" width=".9" height=".9"/>
  <rect class="pixel" x="338" y="338" width=".9" height=".9"/>
  <rect class="pixel" x="339" y="339" width=".9" height=".9"/>
  <rect class="pixel" x="340" y="340" width=".9" height=".9"/>
  <rect class="pixel" x="341" y="341" width=".9" height=".9"/>
  <rect class="pixel" x="342" y="342" width=".9" height=".9"/>
  <rect class="pixel" x="343" y="343" width=".9" height=".9"/>
  <rect class="pixel" x="344" y="344" width=".9" height=".9"/>
  <rect class="pixel" x="345" y="345" width=".9" height=".9"/>
  <rect class="pixel" x="346" y="346" width=".9" height=".9"/>
  <rect class="pixel" x="347" y="347" width=".9" height=".9"/>
  <rect class="pixel" x="348" y="348" width=".9" height=".9"/>
  <rect class="pixel" x="349" y="349" width=".9" height=".9"/>
  <rect class="pixel" x="350" y="350" width=".9" height=".9"/>
  <rect class="pixel" x="351" y="351" width=".9" height=".9"/>
  <rect class="pixel" x="352" y="352" width=".9" height=".9"/>
  <rect class="pixel" x="353" y="353" width=".9" height=".9"/>
  <rect class="pixel" x="354" y="354" width=".9" height=".9"/>
  <rect class="pixel" x="355" y="355" width=".9" height=".9"/>
  <rect class="pixel" x="356" y="356" width=".9" height=".9"/>
  <rect class="pixel" x="357" y="357" width=".9" height=".9"/>
  <rect class="pixel" x="358" y="358" width=".9" height=".9"/>
  <rect class="pixel" x="359" y="359" width=".9" height=".9"/>
  <rect class="pixel" x="360" y="360" width=".9" height=".9"/>
  <rect class="pixel" x="361" y="361" width=".9" height=".9"/>
  <rect class="pixel" x="362" y="362" width=".9" height=".9"/>
  <rect class="pixel" x="363" y="363" width=".9" height=".9"/>
  <rect class="pixel" x="364" y="364" width=".9" height=".9"/>
  <rect class="pixel" x="365" y="365" width=".9" height=".9"/>
  <rect class="pixel" x="366" y="366" width=".9" height=".9"/>
  <rect class="pixel" x="367" y="367" width=".9" height=".9"/>
  <rect class="pixel" x="368" y="368" width=".9" height=".9"/>
  <rect class="pixel" x="369" y="369" width=".9" height=".9"/>
  <rect class="pixel" x="370" y="370" width=".9" height=".9"/>
  <rect class="pixel" x="371" y="371" width=".9" height=".9"/>
  <rect class="pixel" x="372" y="372" width=".9" height=".9"/>
  <rect class="pixel" x="373" y="373" width=".9" height=".9"/>
  <rect class="pixel" x="374" y="374" width=".9" height=".9"/>
  <rect class="pixel" x="375" y="375" width=".9" height=".9"/>
  <rect class="pixel" x="376" y="376" width=".9" height=".9"/>
  <rect class="pixel" x="377" y="377" width=".9" height=".9"/>
  <rect class="pixel" x="378" y="378" width=".9" height=".9"/>
  <rect class="pixel" x="379" y="379" width=".9" height=".9"/>
  <rect class="pixel" x="380" y="380" width=".9" height=".9"/>
  <rect class="pixel" x="381" y="381" width=".9" height=".9"/>
  <rect class="pixel" x="382" y="382" width=".9" height=".9"/>
  <rect class="pixel" x="383" y="383" width=".9" height=".9"/>
  <rect class="pixel" x="384" y="384" width=".9" height=".9"/>
</svg>
