<svg xmlns="http://www.w3.org/2000/svg" version="1.1" viewBox="0 0 3 386 ">
<style type="text/css" >
     <![CDATA[
      rect.pixel {
          fill:   #ff0000;
      }
    ]]>
  </style>

   <rect width="3" height="386" fill="rgb(128, 128, 128)"/>
   <rect x="1" y="1" width="1.1" height="384.1" fill="rgb(255, 255, 255)"/>

  <rect class="pixel" x="1" y="1" width=".9" height=".9"/>
  <rect class="pixel" x="1" y="2" width=".9" height=".9"/>
  <rect class="pixel" x="1" y="3" width=".9" height=".9"/>
  <rect class="pixel" x="1" y="4" width=".9" height=".9"/>
  <rect class="pixel" x="1" y="5" width=".9" height=".9"/>
  <rect class="pixel" x="1" y="6" width=".9" height=".9"/>
  <rect class="pixel" x="1" y="7" width=".9" height=".9"/>
  <rect class="pixel" x="1" y="8" width=".9" height=".9"/>
  <rect class="pixel" x="1" y="9" width=".9" height=".9"/>
  <rect class="pixel" x="1" y="10" width=".9" height=".9"/>
  <rect class="pixel" x="1" y="11" width=".9" height=".9"/>
  <rect class="pixel" x="1" y="12" width=".9" height=".9"/>
  <rect class="pixel" x="1" y="13" width=".9" height=".9"/>
  <rect class="pixel" x="1" y="14" width=".9" height=".9"/>
  <rect class="pixel" x="1" y="15" width=".9" height=".9"/>
  <rect class="pixel" x="1" y="16" width=".9" height=".9"/>
  <rect class="pixel" x="1" y="17" width=".9" height=".9"/>
  <rect class="pixel" x="1" y="18" width=".9" height=".9"/>
  <rect class="pixel" x="1" y="19" width=".9" height=".9"/>
  <rect class="pixel" x="1" y="20" width=".9" height=".9"/>
  <rect class="pixel" x="1" y="21" width=".9" height=".9"/>
  <rect class="pixel" x="1" y="22" width=".9" height=".9"/>
  <rect class="pixel" x="1" y="23" width=".9" height=".9"/>
  <rect class="pixel" x="1" y="24" width=".9" height=".9"/>
  <rect class="pixel" x="1" y="25" width=".9" height=".9"/>
  <rect class="pixel" x="1" y="26" width=".9" height=".9"/>
  <rect class="pixel" x="1" y="27" width=".9" height=".9"/>
  <rect class="pixel" x="1" y="28" width=".9" height=".9"/>
  <rect class="pixel" x="1" y="29" width=".9" height=".9"/>
  <rect class="pixel" x="1" y="30" width=".9" height=".9"/>
  <rect class="pixel" x="1" y="31" width=".9" height=".9"/>
  <rect class="pixel" x="1" y="32" width=".9" height=".9"/>
  <rect class="pixel" x="1" y="33" width=".9" height=".9"/>
  <rect class="pixel" x="1" y="34" width=".9" height=".9"/>
  <rect class="pixel" x="1" y="35" width=".9" height=".9"/>
  <rect class="pixel" x="1" y="36" width=".9" height=".9"/>
  <rect class="pixel" x="1" y="37" width=".9" height=".9"/>
  <rect class="pixel" x="1" y="38" width=".9" height=".9"/>
  <rect class="pixel" x="1" y="39" width=".9" height=".9"/>
  <rect class="pixel" x="1" y="40" width=".9" height=".9"/>
  <rect class="pixel" x="1" y="41" width=".9" height=".9"/>
  <rect class="pixel" x="1" y="42" width=".9" height=".9"/>
  <rect class="pixel" x="1" y="43" width=".9" height=".9"/>
  <rect class="pixel" x="1" y="44" width=".9" height=".9"/>
  <rect class="pixel" x="1" y="45" width=".9" height=".9"/>
  <rect class="pixel" x="1" y="46" width=".9" height=".9"/>
  <rect class="pixel" x="1" y="47" width=".9" height=".9"/>
  <rect class="pixel" x="1" y="48" width=".9" height=".9"/>
  <rect class="pixel" x="1" y="49" width=".9" height=".9"/>
  <rect class="pixel" x="1" y="50" width=".9" height=".9"/>
  <rect class="pixel" x="1" y="51" width=".9" height=".9"/>
  <rect class="pixel" x="1" y="52" width=".9" height=".9"/>
  <rect class="pixel" x="1" y="53" width=".9" height=".9"/>
  <rect class="pixel" x="1" y="54" width=".9" height=".9"/>
  <rect class="pixel" x="1" y="55" width=".9" height=".9"/>
  <rect class="pixel" x="1" y="56" width=".9" height=".9"/>
  <rect class="pixel" x="1" y="57" width=".9" height=".9"/>
  <rect class="pixel" x="1" y="58" width=".9" height=".9"/>
  <rect class="pixel" x="1" y="59" width=".9" height=".9"/>
  <rect class="pixel" x="1" y="60" width=".9" height=".9"/>
  <rect class="pixel" x="1" y="61" width=".9" height=".9"/>
  <rect class="pixel" x="1" y="62" width=".9" height=".9"/>
  <rect class="pixel" x="1" y="63" width=".9" height=".9"/>
  <rect class="pixel" x="1" y="64" width=".9" height=".9"/>
  <rect class="pixel" x="1" y="65" width=".9" height=".9"/>
  <rect class="pixel" x="1" y="66" width=".9" height=".9"/>
  <rect class="pixel" x="1" y="67" width=".9" height=".9"/>
  <rect class="pixel" x="1" y="68" width=".9" height=".9"/>
  <rect class="pixel" x="1" y="69" width=".9" height=".9"/>
  <rect class="pixel" x="1" y="70" width=".9" height=".9"/>
  <rect class="pixel" x="1" y="71" width=".9" height=".9"/>
  <rect class="pixel" x="1" y="72" width=".9" height=".9"/>
  <rect class="pixel" x="1" y="73" width=".9" height=".9"/>
  <rect class="pixel" x="1" y="74" width=".9" height=".9"/>
  <rect class="pixel" x="1" y="75" width=".9" height=".9"/>
  <rect class="pixel" x="1" y="76" width=".9" height=".9"/>
  <rect class="pixel" x="1" y="77" width=".9" height=".9"/>
  <rect class="pixel" x="1" y="78" width=".9" height=".9"/>
  <rect class="pixel" x="1" y="79" width=".9" height=".9"/>
  <rect class="pixel" x="1" y="80" width=".9" height=".9"/>
  <rect class="pixel" x="1" y="81" width=".9" height=".9"/>
  <rect class="pixel" x="1" y="82" width=".9" height=".9"/>
  <rect class="pixel" x="1" y="83" width=".9" height=".9"/>
  <rect class="pixel" x="1" y="84" width=".9" height=".9"/>
  <rect class="pixel" x="1" y="85" width=".9" height=".9"/>
  <rect class="pixel" x="1" y="86" width=".9" height=".9"/>
  <rect class="pixel" x="1" y="87" width=".9" height=".9"/>
  <rect class="pixel" x="1" y="88" width=".9" height=".9"/>
  <rect class="pixel" x="1" y="89" width=".9" height=".9"/>
  <rect class="pixel" x="1" y="90" width=".9" height=".9"/>
  <rect class="pixel" x="1" y="91" width=".9" height=".9"/>
  <rect class="pixel" x="1" y="92" width=".9" height=".9"/>
  <rect class="pixel" x="1" y="93" width=".9" height=".9"/>
  <rect class="pixel" x="1" y="94" width=".9" height=".9"/>
  <rect class="pixel" x="1" y="95" width=".9" height=".9"/>
  <rect class="pixel" x="1" y="96" width=".9" height=".9"/>
  <rect class="pixel" x="1" y="97" width=".9" height=".9"/>
  <rect class="pixel" x="1" y="98" width=".9" height=".9"/>
  <rect class="pixel" x="1" y="99" width=".9" height=".9"/>
  <rect class="pixel" x="1" y="100" width=".9" height=".9"/>
  <rect class="pixel" x="1" y="101" width=".9" height=".9"/>
  <rect class="pixel" x="1" y="102" width=".9" height=".9"/>
  <rect class="pixel" x="1" y="103" width=".9" height=".9"/>
  <rect class="pixel" x="1" y="104" width=".9" height=".9"/>
  <rect class="pixel" x="1" y="105" width=".9" height=".9"/>
  <rect class="pixel" x="1" y="106" width=".9" height=".9"/>
  <rect class="pixel" x="1" y="107" width=".9" height=".9"/>
  <rect class="pixel" x="1" y="108" width=".9" height=".9"/>
  <rect class="pixel" x="1" y="109" width=".9" height=".9"/>
  <rect class="pixel" x="1" y="110" width=".9" height=".9"/>
  <rect class="pixel" x="1" y="111" width=".9" height=".9"/>
  <rect class="pixel" x="1" y="112" width=".9" height=".9"/>
  <rect class="pixel" x="1" y="113" width=".9" height=".9"/>
  <rect class="pixel" x="1" y="114" width=".9" height=".9"/>
  <rect class="pixel" x="1" y="115" width=".9" height=".9"/>
  <rect class="pixel" x="1" y="116" width=".9" height=".9"/>
  <rect class="pixel" x="1" y="117" width=".9" height=".9"/>
  <rect class="pixel" x="1" y="118" width=".9" height=".9"/>
  <rect class="pixel" x="1" y="119" width=".9" height=".9"/>
  <rect class="pixel" x="1" y="120" width=".9" height=".9"/>
  <rect class="pixel" x="1" y="121" width=".9" height=".9"/>
  <rect class="pixel" x="1" y="122" width=".9" height=".9"/>
  <rect class="pixel" x="1" y="123" width=".9" height=".9"/>
  <rect class="pixel" x="1" y="124" width=".9" height=".9"/>
  <rect class="pixel" x="1" y="125" width=".9" height=".9"/>
  <rect class="pixel" x="1" y="126" width=".9" height=".9"/>
  <rect class="pixel" x="1" y="127" width=".9" height=".9"/>
  <rect class="pixel" x="1" y="128" width=".9" height=".9"/>
  <rect class="pixel" x="1" y="129" width=".9" height=".9"/>
  <rect class="pixel" x="1" y="130" width=".9" height=".9"/>
  <rect class="pixel" x="1" y="131" width=".9" height=".9"/>
  <rect class="pixel" x="1" y="132" width=".9" height=".9"/>
  <rect class="pixel" x="1" y="133" width=".9" height=".9"/>
  <rect class="pixel" x="1" y="134" width=".9" height=".9"/>
  <rect class="pixel" x="1" y="135" width=".9" height=".9"/>
  <rect class="pixel" x="1" y="136" width=".9" height=".9"/>
  <rect class="pixel" x="1" y="137" width=".9" height=".9"/>
  <rect class="pixel" x="1" y="138" width=".9" height=".9"/>
  <rect class="pixel" x="1" y="139" width=".9" height=".9"/>
  <rect class="pixel" x="1" y="140" width=".9" height=".9"/>
  <rect class="pixel" x="1" y="141" width=".9" height=".9"/>
  <rect class="pixel" x="1" y="142" width=".9" height=".9"/>
  <rect class="pixel" x="1" y="143" width=".9" height=".9"/>
  <rect class="pixel" x="1" y="144" width=".9" height=".9"/>
  <rect class="pixel" x="1" y="145" width=".9" height=".9"/>
  <rect class="pixel" x="1" y="146" width=".9" height=".9"/>
  <rect class="pixel" x="1" y="147" width=".9" height=".9"/>
  <rect class="pixel" x="1" y="148" width=".9" height=".9"/>
  <rect class="pixel" x="1" y="149" width=".9" height=".9"/>
  <rect class="pixel" x="1" y="150" width=".9" height=".9"/>
  <rect class="pixel" x="1" y="151" width=".9" height=".9"/>
  <rect class="pixel" x="1" y="152" width=".9" height=".9"/>
  <rect class="pixel" x="1" y="153" width=".9" height=".9"/>
  <rect class="pixel" x="1" y="154" width=".9" height=".9"/>
  <rect class="pixel" x="1" y="155" width=".9" height=".9"/>
  <rect class="pixel" x="1" y="156" width=".9" height=".9"/>
  <rect class="pixel" x="1" y="157" width=".9" height=".9"/>
  <rect class="pixel" x="1" y="158" width=".9" height=".9"/>
  <rect class="pixel" x="1" y="159" width=".9" height=".9"/>
  <rect class="pixel" x="1" y="160" width=".9" height=".9"/>
  <rect class="pixel" x="1" y="161" width=".9" height=".9"/>
  <rect class="pixel" x="1" y="162" width=".9" height=".9"/>
  <rect class="pixel" x="1" y="163" width=".9" height=".9"/>
  <rect class="pixel" x="1" y="164" width=".9" height=".9"/>
  <rect class="pixel" x="1" y="165" width=".9" height=".9"/>
  <rect class="pixel" x="1" y="166" width=".9" height=".9"/>
  <rect class="pixel" x="1" y="167" width=".9" height=".9"/>
  <rect class="pixel" x="1" y="168" width=".9" height=".9"/>
  <rect class="pixel" x="1" y="169" width=".9" height=".9"/>
  <rect class="pixel" x="1" y="170" width=".9" height=".9"/>
  <rect class="pixel" x="1" y="171" width=".9" height=".9"/>
  <rect class="pixel" x="1" y="172" width=".9" height=".9"/>
  <rect class="pixel" x="1" y="173" width=".9" height=".9"/>
  <rect class="pixel" x="1" y="174" width=".9" height=".9"/>
  <rect class="pixel" x="1" y="175" width=".9" height=".9"/>
  <rect class="pixel" x="1" y="176" width=".9" height=".9"/>
  <rect class="pixel" x="1" y="177" width=".9" height=".9"/>
  <rect class="pixel" x="1" y="178" width=".9" height=".9"/>
  <rect class="pixel" x="1" y="179" width=".9" height=".9"/>
  <rect class="pixel" x="1" y="180" width=".9" height=".9"/>
  <rect class="pixel" x="1" y="181" width=".9" height=".9"/>
  <rect class="pixel" x="1" y="182" width=".9" height=".9"/>
  <rect class="pixel" x="1" y="183" width=".9" height=".9"/>
  <rect class="pixel" x="1" y="184" width=".9" height=".9"/>
  <rect class="pixel" x="1" y="185" width=".9" height=".9"/>
  <rect class="pixel" x="1" y="186" width=".9" height=".9"/>
  <rect class="pixel" x="1" y="187" width=".9" height=".9"/>
  <rect class="pixel" x="1" y="188" width=".9" height=".9"/>
  <rect class="pixel" x="1" y="189" width=".9" height=".9"/>
  <rect class="pixel" x="1" y="190" width=".9" height=".9"/>
  <rect class="pixel" x="1" y="191" width=".9" height=".9"/>
  <rect class="pixel" x="1" y="192" width=".9" height=".9"/>
  <rect class="pixel" x="1" y="193" width=".9" height=".9"/>
  <rect class="pixel" x="1" y="194" width=".9" height=".9"/>
  <rect class="pixel" x="1" y="195" width=".9" height=".9"/>
  <rect class="pixel" x="1" y="196" width=".9" height=".9"/>
  <rect class="pixel" x="1" y="197" width=".9" height=".9"/>
  <rect class="pixel" x="1" y="198" width=".9" height=".9"/>
  <rect class="pixel" x="1" y="199" width=".9" height=".9"/>
  <rect class="pixel" x="1" y="200" width=".9" height=".9"/>
  <rect class="pixel" x="1" y="201" width=".9" height=".9"/>
  <rect class="pixel" x="1" y="202" width=".9" height=".9"/>
  <rect class="pixel" x="1" y="203" width=".9" height=".9"/>
  <rect class="pixel" x="1" y="204" width=".9" height=".9"/>
  <rect class="pixel" x="1" y="205" width=".9" height=".9"/>
  <rect class="pixel" x="1" y="206" width=".9" height=".9"/>
  <rect class="pixel" x="1" y="207" width=".9" height=".9"/>
  <rect class="pixel" x="1" y="208" width=".9" height=".9"/>
  <rect class="pixel" x="1" y="209" width=".9" height=".9"/>
  <rect class="pixel" x="1" y="210" width=".9" height=".9"/>
  <rect class="pixel" x="1" y="211" width=".9" height=".9"/>
  <rect class="pixel" x="1" y="212" width=".9" height=".9"/>
  <rect class="pixel" x="1" y="213" width=".9" height=".9"/>
  <rect class="pixel" x="1" y="214" width=".9" height=".9"/>
  <rect class="pixel" x="1" y="215" width=".9" height=".9"/>
  <rect class="pixel" x="1" y="216" width=".9" height=".9"/>
  <rect class="pixel" x="1" y="217" width=".9" height=".9"/>
  <rect class="pixel" x="1" y="218" width=".9" height=".9"/>
  <rect class="pixel" x="1" y="219" width=".9" height=".9"/>
  <rect class="pixel" x="1" y="220" width=".9" height=".9"/>
  <rect class="pixel" x="1" y="221" width=".9" height=".9"/>
  <rect class="pixel" x="1" y="222" width=".9" height=".9"/>
  <rect class="pixel" x="1" y="223" width=".9" height=".9"/>
  <rect class="pixel" x="1" y="224" width=".9" height=".9"/>
  <rect class="pixel" x="1" y="225" width=".9" height=".9"/>
  <rect class="pixel" x="1" y="226" width=".9" height=".9"/>
  <rect class="pixel" x="1" y="227" width=".9" height=".9"/>
  <rect class="pixel" x="1" y="228" width=".9" height=".9"/>
  <rect class="pixel" x="1" y="229" width=".9" height=".9"/>
  <rect class="pixel" x="1" y="230" width=".9" height=".9"/>
  <rect class="pixel" x="1" y="231" width=".9" height=".9"/>
  <rect class="pixel" x="1" y="232" width=".9" height=".9"/>
  <rect class="pixel" x="1" y="233" width=".9" height=".9"/>
  <rect class="pixel" x="1" y="234" width=".9" height=".9"/>
  <rect class="pixel" x="1" y="235" width=".9" height=".9"/>
  <rect class="pixel" x="1" y="236" width=".9" height=".9"/>
  <rect class="pixel" x="1" y="237" width=".9" height=".9"/>
  <rect class="pixel" x="1" y="238" width=".9" height=".9"/>
  <rect class="pixel" x="1" y="239" width=".9" height=".9"/>
  <rect class="pixel" x="1" y="240" width=".9" height=".9"/>
  <rect class="pixel" x="1" y="241" width=".9" height=".9"/>
  <rect class="pixel" x="1" y="242" width=".9" height=".9"/>
  <rect class="pixel" x="1" y="243" width=".9" height=".9"/>
  <rect class="pixel" x="1" y="244" width=".9" height=".9"/>
  <rect class="pixel" x="1" y="245" width=".9" height=".9"/>
  <rect class="pixel" x="1" y="246" width=".9" height=".9"/>
  <rect class="pixel" x="1" y="247" width=".9" height=".9"/>
  <rect class="pixel" x="1" y="248" width=".9" height=".9"/>
  <rect class="pixel" x="1" y="249" width=".9" height=".9"/>
  <rect class="pixel" x="1" y="250" width=".9" height=".9"/>
  <rect class="pixel" x="1" y="251" width=".9" height=".9"/>
  <rect class="pixel" x="1" y="252" width=".9" height=".9"/>
  <rect class="pixel" x="1" y="253" width=".9" height=".9"/>
  <rect class="pixel" x="1" y="254" width=".9" height=".9"/>
  <rect class="pixel" x="1" y="255" width=".9" height=".9"/>
  <rect class="pixel" x="1" y="256" width=".9" height=".9"/>
  <rect class="pixel" x="1" y="257" width=".9" height=".9"/>
  <rect class="pixel" x="1" y="258" width=".9" height=".9"/>
  <rect class="pixel" x="1" y="259" width=".9" height=".9"/>
  <rect class="pixel" x="1" y="260" width=".9" height=".9"/>
  <rect class="pixel" x="1" y="261" width=".9" height=".9"/>
  <rect class="pixel" x="1" y="262" width=".9" height=".9"/>
  <rect class="pixel" x="1" y="263" width=".9" height=".9"/>
  <rect class="pixel" x="1" y="264" width=".9" height=".9"/>
  <rect class="pixel" x="1" y="265" width=".9" height=".9"/>
  <rect class="pixel" x="1" y="266" width=".9" height=".9"/>
  <rect class="pixel" x="1" y="267" width=".9" height=".9"/>
  <rect class="pixel" x="1" y="268" width=".9" height=".9"/>
  <rect class="pixel" x="1" y="269" width=".9" height=".9"/>
  <rect class="pixel" x="1" y="270" width=".9" height=".9"/>
  <rect class="pixel" x="1" y="271" width=".9" height=".9"/>
  <rect class="pixel" x="1" y="272" width=".9" height=".9"/>
  <rect class="pixel" x="1" y="273" width=".9" height=".9"/>
  <rect class="pixel" x="1" y="274" width=".9" height=".9"/>
  <rect class="pixel" x="1" y="275" width=".9" height=".9"/>
  <rect class="pixel" x="1" y="276" width=".9" height=".9"/>
  <rect class="pixel" x="1" y="277" width=".9" height=".9"/>
  <rect class="pixel" x="1" y="278" width=".9" height=".9"/>
  <rect class="pixel" x="1" y="279" width=".9" height=".9"/>
  <rect class="pixel" x="1" y="280" width=".9" height=".9"/>
  <rect class="pixel" x="1" y="281" width=".9" height=".9"/>
  <rect class="pixel" x="1" y="282" width=".9" height=".9"/>
  <rect class="pixel" x="1" y="283" width=".9" height=".9"/>
  <rect class="pixel" x="1" y="284" width=".9" height=".9"/>
  <rect class="pixel" x="1" y="285" width=".9" height=".9"/>
  <rect class="pixel" x="1" y="286" width=".9" height=".9"/>
  <rect class="pixel" x="1" y="287" width=".9" height=".9"/>
  <rect class="pixel" x="1" y="288" width=".9" height=".9"/>
  <rect class="pixel" x="1" y="289" width=".9" height=".9"/>
  <rect class="pixel" x="1" y="290" width=".9" height=".9"/>
  <rect class="pixel" x="1" y="291" width=".9" height=".9"/>
  <rect class="pixel" x="1" y="292" width=".9" height=".9"/>
  <rect class="pixel" x="1" y="293" width=".9" height=".9"/>
  <rect class="pixel" x="1" y="294" width=".9" height=".9"/>
  <rect class="pixel" x="1" y="295" width=".9" height=".9"/>
  <rect class="pixel" x="1" y="296" width=".9" height=".9"/>
  <rect class="pixel" x="1" y="297" width=".9" height=".9"/>
  <rect class="pixel" x="1" y="298" width=".9" height=".9"/>
  <rect class="pixel" x="1" y="299" width=".9" height=".9"/>
  <rect class="pixel" x="1" y="300" width=".9" height=".9"/>
  <rect class="pixel" x="1" y="301" width=".9" height=".9"/>
  <rect class="pixel" x="1" y="302" width=".9" height=".9"/>
  <rect class="pixel" x="1" y="303" width=".9" height=".9"/>
  <rect class="pixel" x="1" y="304" width=".9" height=".9"/>
  <rect class="pixel" x="1" y="305" width=".9" height=".9"/>
  <rect class="pixel" x="1" y="306" width=".9" height=".9"/>
  <rect class="pixel" x="1" y="307" width=".9" height=".9"/>
  <rect class="pixel" x="1" y="308" width=".9" height=".9"/>
  <rect class="pixel" x="1" y="309" width=".9" height=".9"/>
  <rect class="pixel" x="1" y="310" width=".9" height=".9"/>
  <rect class="pixel" x="1" y="311" width=".9" height=".9"/>
  <rect class="pixel" x="1" y="312" width=".9" height=".9"/>
  <rect class="pixel" x="1" y="313" width=".9" height=".9"/>
  <rect class="pixel" x="1" y="314" width=".9" height=".9"/>
  <rect class="pixel" x="1" y="315" width=".9" height=".9"/>
  <rect class="pixel" x="1" y="316" width=".9" height=".9"/>
  <rect class="pixel" x="1" y="317" width=".9" height=".9"/>
  <rect class="pixel" x="1" y="318" width=".9" height=".9"/>
  <rect class="pixel" x="1" y="319" width=".9" height=".9"/>
  <rect class="pixel" x="1" y="320" width=".9" height=".9"/>
  <rect class="pixel" x="1" y="321" width=".9" height=".9"/>
  <rect class="pixel" x="1" y="322" width=".9" height=".9"/>
  <rect class="pixel" x="1" y="323" width=".9" height=".9"/>
  <rect class="pixel" x="1" y="324" width=".9" height=".9"/>
  <rect class="pixel" x="1" y="325" width=".9" height=".9"/>
  <rect class="pixel" x="1" y="326" width=".9" height=".9"/>
  <rect class="pixel" x="1" y="327" width=".9" height=".9"/>
  <rect class="pixel" x="1" y="328" width=".9" height=".9"/>
  <rect class="pixel" x="1" y="329" width=".9" height=".9"/>
  <rect class="pixel" x="1" y="330" width=".9" height=".9"/>
  <rect class="pixel" x="1" y="331" width=".9" height=".9"/>
  <rect class="pixel" x="1" y="332" width=".9" height=".9"/>
  <rect class="pixel" x="1" y="333" width=".9" height=".9"/>
  <rect class="pixel" x="1" y="334" width=".9" height=".9"/>
  <rect class="pixel" x="1" y="335" width=".9" height=".9"/>
  <rect class="pixel" x="1" y="336" width=".9" height=".9"/>
  <rect class="pixel" x="1" y="337" width=".9" height=".9"/>
  <rect class="pixel" x="1" y="338" width=".9" height=".9"/>
  <rect class="pixel" x="1" y="339" width=".9" height=".9"/>
  <rect class="pixel" x="1" y="340" width=".9" height=".9"/>
  <rect class="pixel" x="1" y="341" width=".9" height=".9"/>
  <rect class="pixel" x="1" y="342" width=".9" height=".9"/>
  <rect class="pixel" x="1" y="343" width=".9" height=".9"/>
  <rect class="pixel" x="1" y="344" width=".9" height=".9"/>
  <rect class="pixel" x="1" y="345" width=".9" height=".9"/>
  <rect class="pixel" x="1" y="346" width=".9" height=".9"/>
  <rect class="pixel" x="1" y="347" width=".9" height=".9"/>
  <rect class="pixel" x="1" y="348" width=".9" height=".9"/>
  <rect class="pixel" x="1" y="349" width=".9" height=".9"/>
  <rect class="pixel" x="1" y="350" width=".9" height=".9"/>
  <rect class="pixel" x="1" y="351" width=".9" height=".9"/>
  <rect class="pixel" x="1" y="352" width=".9" height=".9"/>
  <rect class="pixel" x="1" y="353" width=".9" height=".9"/>
  <rect class="pixel" x="1" y="354" width=".9" height=".9"/>
  <rect class="pixel" x="1" y="355" width=".9" height=".9"/>
  <rect class="pixel" x="1" y="356" width=".9" height=".9"/>
  <rect class="pixel" x="1" y="357" width=".9" height=".9"/>
  <rect class="pixel" x="1" y="358" width=".9" height=".9"/>
  <rect class="pixel" x="1" y="359" width=".9" height=".9"/>
  <rect class="pixel" x="1" y="360" width=".9" height=".9"/>
  <rect class="pixel" x="1" y="361" width=".9" height=".9"/>
  <rect class="pixel" x="1" y="362" width=".9" height=".9"/>
  <rect class="pixel" x="1" y="363" width=".9" height=".9"/>
  <rect class="pixel" x="1" y="364" width=".9" height=".9"/>
  <rect class="pixel" x="1" y="365" width=".9" height=".9"/>
  <rect class="pixel" x="1" y="366" width=".9" height=".9"/>
  <rect class="pixel" x="1" y="367" width=".9" height=".9"/>
  <rect class="pixel" x="1" y="368" width=".9" height=".9"/>
  <rect class="pixel" x="1" y="369" width=".9" height=".9"/>
  <rect class="pixel" x="1" y="370" width=".9" height=".9"/>
  <rect class="pixel" x="1" y="371" width=".9" height=".9"/>
  <rect class="pixel" x="1" y="372" width=".9" height=".9"/>
  <rect class="pixel" x="1" y="373" width=".9" height=".9"/>
  <rect class="pixel" x="1" y="374" width=".9" height=".9"/>
  <rect class="pixel" x="1" y="375" width=".9" height=".9"/>
  <rect class="pixel" x="1" y="376" width=".9" height=".9"/>
  <rect class="pixel" x="1" y="377" width=".9" height=".9"/>
  <rect class="pixel" x="1" y="378" width=".9" height=".9"/>
  <rect class="pixel" x="1" y="379" width=".9" height=".9"/>
  <rect class="pixel" x="1" y="380" width=".9" height=".9"/>
  <rect class="pixel" x="1" y="381" width=".9" height=".9"/>
  <rect class="pixel" x="1" y="382" width=".9" height=".9"/>
  <rect class="pixel" x="1" y="383" width=".9" height=".9"/>
  <rect class="pixel" x="1" y="384" width=".9" height=".9"/>
</svg>
