<svg xmlns="http://www.w3.org/2000/svg" version="1.1" viewBox="0 0 386 3 ">
<style type="text/css" >
     <![CDATA[
      rect.pixel {
          fill:   #ff0000;
      }
    ]]>
  </style>

   <rect width="386" height="3" fill="rgb(128, 128, 128)"/>
   <rect x="1" y="1" width="384.1" height="1.1" fill="rgb(255, 255, 255)"/>

  <rect class="pixel" x="1" y="1" width=".9" height=".9"/>
  <rect class="pixel" x="2" y="1" width=".9" height=".9"/>
  <rect class="pixel" x="3" y="1" width=".9" height=".9"/>
  <rect class="pixel" x="4" y="1" width=".9" height=".9"/>
  <rect class="pixel" x="5" y="1" width=".9" height=".9"/>
  <rect class="pixel" x="6" y="1" width=".9" height=".9"/>
  <rect class="pixel" x="7" y="1" width=".9" height=".9"/>
  <rect class="pixel" x="8" y="1" width=".9" height=".9"/>
  <rect class="pixel" x="9" y="1" width=".9" height=".9"/>
  <rect class="pixel" x="10" y="1" width=".9" height=".9"/>
  <rect class="pixel" x="11" y="1" width=".9" height=".9"/>
  <rect class="pixel" x="12" y="1" width=".9" height=".9"/>
  <rect class="pixel" x="13" y="1" width=".9" height=".9"/>
  <rect class="pixel" x="14" y="1" width=".9" height=".9"/>
  <rect class="pixel" x="15" y="1" width=".9" height=".9"/>
  <rect class="pixel" x="16" y="1" width=".9" height=".9"/>
  <rect class="pixel" x="17" y="1" width=".9" height=".9"/>
  <rect class="pixel" x="18" y="1" width=".9" height=".9"/>
  <rect class="pixel" x="19" y="1" width=".9" height=".9"/>
  <rect class="pixel" x="20" y="1" width=".9" height=".9"/>
  <rect class="pixel" x="21" y="1" width=".9" height=".9"/>
  <rect class="pixel" x="22" y="1" width=".9" height=".9"/>
  <rect class="pixel" x="23" y="1" width=".9" height=".9"/>
  <rect class="pixel" x="24" y="1" width=".9" height=".9"/>
  <rect class="pixel" x="25" y="1" width=".9" height=".9"/>
  <rect class="pixel" x="26" y="1" width=".9" height=".9"/>
  <rect class="pixel" x="27" y="1" width=".9" height=".9"/>
  <rect class="pixel" x="28" y="1" width=".9" height=".9"/>
  <rect class="pixel" x="29" y="1" width=".9" height=".9"/>
  <rect class="pixel" x="30" y="1" width=".9" height=".9"/>
  <rect class="pixel" x="31" y="1" width=".9" height=".9"/>
  <rect class="pixel" x="32" y="1" width=".9" height=".9"/>
  <rect class="pixel" x="33" y="1" width=".9" height=".9"/>
  <rect class="pixel" x="34" y="1" width=".9" height=".9"/>
  <rect class="pixel" x="35" y="1" width=".9" height=".9"/>
  <rect class="pixel" x="36" y="1" width=".9" height=".9"/>
  <rect class="pixel" x="37" y="1" width=".9" height=".9"/>
  <rect class="pixel" x="38" y="1" width=".9" height=".9"/>
  <rect class="pixel" x="39" y="1" width=".9" height=".9"/>
  <rect class="pixel" x="40" y="1" width=".9" height=".9"/>
  <rect class="pixel" x="41" y="1" width=".9" height=".9"/>
  <rect class="pixel" x="42" y="1" width=".9" height=".9"/>
  <rect class="pixel" x="43" y="1" width=".9" height=".9"/>
  <rect class="pixel" x="44" y="1" width=".9" height=".9"/>
  <rect class="pixel" x="45" y="1" width=".9" height=".9"/>
  <rect class="pixel" x="46" y="1" width=".9" height=".9"/>
  <rect class="pixel" x="47" y="1" width=".9" height=".9"/>
  <rect class="pixel" x="48" y="1" width=".9" height=".9"/>
  <rect class="pixel" x="49" y="1" width=".9" height=".9"/>
  <rect class="pixel" x="50" y="1" width=".9" height=".9"/>
  <rect class="pixel" x="51" y="1" width=".9" height=".9"/>
  <rect class="pixel" x="52" y="1" width=".9" height=".9"/>
  <rect class="pixel" x="53" y="1" width=".9" height=".9"/>
  <rect class="pixel" x="54" y="1" width=".9" height=".9"/>
  <rect class="pixel" x="55" y="1" width=".9" height=".9"/>
  <rect class="pixel" x="56" y="1" width=".9" height=".9"/>
  <rect class="pixel" x="57" y="1" width=".9" height=".9"/>
  <rect class="pixel" x="58" y="1" width=".9" height=".9"/>
  <rect class="pixel" x="59" y="1" width=".9" height=".9"/>
  <rect class="pixel" x="60" y="1" width=".9" height=".9"/>
  <rect class="pixel" x="61" y="1" width=".9" height=".9"/>
  <rect class="pixel" x="62" y="1" width=".9" height=".9"/>
  <rect class="pixel" x="63" y="1" width=".9" height=".9"/>
  <rect class="pixel" x="64" y="1" width=".9" height=".9"/>
  <rect class="pixel" x="65" y="1" width=".9" height=".9"/>
  <rect class="pixel" x="66" y="1" width=".9" height=".9"/>
  <rect class="pixel" x="67" y="1" width=".9" height=".9"/>
  <rect class="pixel" x="68" y="1" width=".9" height=".9"/>
  <rect class="pixel" x="69" y="1" width=".9" height=".9"/>
  <rect class="pixel" x="70" y="1" width=".9" height=".9"/>
  <rect class="pixel" x="71" y="1" width=".9" height=".9"/>
  <rect class="pixel" x="72" y="1" width=".9" height=".9"/>
  <rect class="pixel" x="73" y="1" width=".9" height=".9"/>
  <rect class="pixel" x="74" y="1" width=".9" height=".9"/>
  <rect class="pixel" x="75" y="1" width=".9" height=".9"/>
  <rect class="pixel" x="76" y="1" width=".9" height=".9"/>
  <rect class="pixel" x="77" y="1" width=".9" height=".9"/>
  <rect class="pixel" x="78" y="1" width=".9" height=".9"/>
  <rect class="pixel" x="79" y="1" width=".9" height=".9"/>
  <rect class="pixel" x="80" y="1" width=".9" height=".9"/>
  <rect class="pixel" x="81" y="1" width=".9" height=".9"/>
  <rect class="pixel" x="82" y="1" width=".9" height=".9"/>
  <rect class="pixel" x="83" y="1" width=".9" height=".9"/>
  <rect class="pixel" x="84" y="1" width=".9" height=".9"/>
  <rect class="pixel" x="85" y="1" width=".9" height=".9"/>
  <rect class="pixel" x="86" y="1" width=".9" height=".9"/>
  <rect class="pixel" x="87" y="1" width=".9" height=".9"/>
  <rect class="pixel" x="88" y="1" width=".9" height=".9"/>
  <rect class="pixel" x="89" y="1" width=".9" height=".9"/>
  <rect class="pixel" x="90" y="1" width=".9" height=".9"/>
  <rect class="pixel" x="91" y="1" width=".9" height=".9"/>
  <rect class="pixel" x="92" y="1" width=".9" height=".9"/>
  <rect class="pixel" x="93" y="1" width=".9" height=".9"/>
  <rect class="pixel" x="94" y="1" width=".9" height=".9"/>
  <rect class="pixel" x="95" y="1" width=".9" height=".9"/>
  <rect class="pixel" x="96" y="1" width=".9" height=".9"/>
  <rect class="pixel" x="97" y="1" width=".9" height=".9"/>
  <rect class="pixel" x="98" y="1" width=".9" height=".9"/>
  <rect class="pixel" x="99" y="1" width=".9" height=".9"/>
  <rect class="pixel" x="100" y="1" width=".9" height=".9"/>
  <rect class="pixel" x="101" y="1" width=".9" height=".9"/>
  <rect class="pixel" x="102" y="1" width=".9" height=".9"/>
  <rect class="pixel" x="103" y="1" width=".9" height=".9"/>
  <rect class="pixel" x="104" y="1" width=".9" height=".9"/>
  <rect class="pixel" x="105" y="1" width=".9" height=".9"/>
  <rect class="pixel" x="106" y="1" width=".9" height=".9"/>
  <rect class="pixel" x="107" y="1" width=".9" height=".9"/>
  <rect class="pixel" x="108" y="1" width=".9" height=".9"/>
  <rect class="pixel" x="109" y="1" width=".9" height=".9"/>
  <rect class="pixel" x="110" y="1" width=".9" height=".9"/>
  <rect class="pixel" x="111" y="1" width=".9" height=".9"/>
  <rect class="pixel" x="112" y="1" width=".9" height=".9"/>
  <rect class="pixel" x="113" y="1" width=".9" height=".9"/>
  <rect class="pixel" x="114" y="1" width=".9" height=".9"/>
  <rect class="pixel" x="115" y="1" width=".9" height=".9"/>
  <rect class="pixel" x="116" y="1" width=".9" height=".9"/>
  <rect class="pixel" x="117" y="1" width=".9" height=".9"/>
  <rect class="pixel" x="118" y="1" width=".9" height=".9"/>
  <rect class="pixel" x="119" y="1" width=".9" height=".9"/>
  <rect class="pixel" x="120" y="1" width=".9" height=".9"/>
  <rect class="pixel" x="121" y="1" width=".9" height=".9"/>
  <rect class="pixel" x="122" y="1" width=".9" height=".9"/>
  <rect class="pixel" x="123" y="1" width=".9" height=".9"/>
  <rect class="pixel" x="124" y="1" width=".9" height=".9"/>
  <rect class="pixel" x="125" y="1" width=".9" height=".9"/>
  <rect class="pixel" x="126" y="1" width=".9" height=".9"/>
  <rect class="pixel" x="127" y="1" width=".9" height=".9"/>
  <rect class="pixel" x="128" y="1" width=".9" height=".9"/>
  <rect class="pixel" x="129" y="1" width=".9" height=".9"/>
  <rect class="pixel" x="130" y="1" width=".9" height=".9"/>
  <rect class="pixel" x="131" y="1" width=".9" height=".9"/>
  <rect class="pixel" x="132" y="1" width=".9" height=".9"/>
  <rect class="pixel" x="133" y="1" width=".9" height=".9"/>
  <rect class="pixel" x="134" y="1" width=".9" height=".9"/>
  <rect class="pixel" x="135" y="1" width=".9" height=".9"/>
  <rect class="pixel" x="136" y="1" width=".9" height=".9"/>
  <rect class="pixel" x="137" y="1" width=".9" height=".9"/>
  <rect class="pixel" x="138" y="1" width=".9" height=".9"/>
  <rect class="pixel" x="139" y="1" width=".9" height=".9"/>
  <rect class="pixel" x="140" y="1" width=".9" height=".9"/>
  <rect class="pixel" x="141" y="1" width=".9" height=".9"/>
  <rect class="pixel" x="142" y="1" width=".9" height=".9"/>
  <rect class="pixel" x="143" y="1" width=".9" height=".9"/>
  <rect class="pixel" x="144" y="1" width=".9" height=".9"/>
  <rect class="pixel" x="145" y="1" width=".9" height=".9"/>
  <rect class="pixel" x="146" y="1" width=".9" height=".9"/>
  <rect class="pixel" x="147" y="1" width=".9" height=".9"/>
  <rect class="pixel" x="148" y="1" width=".9" height=".9"/>
  <rect class="pixel" x="149" y="1" width=".9" height=".9"/>
  <rect class="pixel" x="150" y="1" width=".9" height=".9"/>
  <rect class="pixel" x="151" y="1" width=".9" height=".9"/>
  <rect class="pixel" x="152" y="1" width=".9" height=".9"/>
  <rect class="pixel" x="153" y="1" width=".9" height=".9"/>
  <rect class="pixel" x="154" y="1" width=".9" height=".9"/>
  <rect class="pixel" x="155" y="1" width=".9" height=".9"/>
  <rect class="pixel" x="156" y="1" width=".9" height=".9"/>
  <rect class="pixel" x="157" y="1" width=".9" height=".9"/>
  <rect class="pixel" x="158" y="1" width=".9" height=".9"/>
  <rect class="pixel" x="159" y="1" width=".9" height=".9"/>
  <rect class="pixel" x="160" y="1" width=".9" height=".9"/>
  <rect class="pixel" x="161" y="1" width=".9" height=".9"/>
  <rect class="pixel" x="162" y="1" width=".9" height=".9"/>
  <rect class="pixel" x="163" y="1" width=".9" height=".9"/>
  <rect class="pixel" x="164" y="1" width=".9" height=".9"/>
  <rect class="pixel" x="165" y="1" width=".9" height=".9"/>
  <rect class="pixel" x="166" y="1" width=".9" height=".9"/>
  <rect class="pixel" x="167" y="1" width=".9" height=".9"/>
  <rect class="pixel" x="168" y="1" width=".9" height=".9"/>
  <rect class="pixel" x="169" y="1" width=".9" height=".9"/>
  <rect class="pixel" x="170" y="1" width=".9" height=".9"/>
  <rect class="pixel" x="171" y="1" width=".9" height=".9"/>
  <rect class="pixel" x="172" y="1" width=".9" height=".9"/>
  <rect class="pixel" x="173" y="1" width=".9" height=".9"/>
  <rect class="pixel" x="174" y="1" width=".9" height=".9"/>
  <rect class="pixel" x="175" y="1" width=".9" height=".9"/>
  <rect class="pixel" x="176" y="1" width=".9" height=".9"/>
  <rect class="pixel" x="177" y="1" width=".9" height=".9"/>
  <rect class="pixel" x="178" y="1" width=".9" height=".9"/>
  <rect class="pixel" x="179" y="1" width=".9" height=".9"/>
  <rect class="pixel" x="180" y="1" width=".9" height=".9"/>
  <rect class="pixel" x="181" y="1" width=".9" height=".9"/>
  <rect class="pixel" x="182" y="1" width=".9" height=".9"/>
  <rect class="pixel" x="183" y="1" width=".9" height=".9"/>
  <rect class="pixel" x="184" y="1" width=".9" height=".9"/>
  <rect class="pixel" x="185" y="1" width=".9" height=".9"/>
  <rect class="pixel" x="186" y="1" width=".9" height=".9"/>
  <rect class="pixel" x="187" y="1" width=".9" height=".9"/>
  <rect class="pixel" x="188" y="1" width=".9" height=".9"/>
  <rect class="pixel" x="189" y="1" width=".9" height=".9"/>
  <rect class="pixel" x="190" y="1" width=".9" height=".9"/>
  <rect class="pixel" x="191" y="1" width=".9" height=".9"/>
  <rect class="pixel" x="192" y="1" width=".9" height=".9"/>
  <rect class="pixel" x="193" y="1" width=".9" height=".9"/>
  <rect class="pixel" x="194" y="1" width=".9" height=".9"/>
  <rect class="pixel" x="195" y="1" width=".9" height=".9"/>
  <rect class="pixel" x="196" y="1" width=".9" height=".9"/>
  <rect class="pixel" x="197" y="1" width=".9" height=".9"/>
  <rect class="pixel" x="198" y="1" width=".9" height=".9"/>
  <rect class="pixel" x="199" y="1" width=".9" height=".9"/>
  <rect class="pixel" x="200" y="1" width=".9" height=".9"/>
  <rect class="pixel" x="201" y="1" width=".9" height=".9"/>
  <rect class="pixel" x="202" y="1" width=".9" height=".9"/>
  <rect class="pixel" x="203" y="1" width=".9" height=".9"/>
  <rect class="pixel" x="204" y="1" width=".9" height=".9"/>
  <rect class="pixel" x="205" y="1" width=".9" height=".9"/>
  <rect class="pixel" x="206" y="1" width=".9" height=".9"/>
  <rect class="pixel" x="207" y="1" width=".9" height=".9"/>
  <rect class="pixel" x="208" y="1" width=".9" height=".9"/>
  <rect class="pixel" x="209" y="1" width=".9" height=".9"/>
  <rect class="pixel" x="210" y="1" width=".9" height=".9"/>
  <rect class="pixel" x="211" y="1" width=".9" height=".9"/>
  <rect class="pixel" x="212" y="1" width=".9" height=".9"/>
  <rect class="pixel" x="213" y="1" width=".9" height=".9"/>
  <rect class="pixel" x="214" y="1" width=".9" height=".9"/>
  <rect class="pixel" x="215" y="1" width=".9" height=".9"/>
  <rect class="pixel" x="216" y="1" width=".9" height=".9"/>
  <rect class="pixel" x="217" y="1" width=".9" height=".9"/>
  <rect class="pixel" x="218" y="1" width=".9" height=".9"/>
  <rect class="pixel" x="219" y="1" width=".9" height=".9"/>
  <rect class="pixel" x="220" y="1" width=".9" height=".9"/>
  <rect class="pixel" x="221" y="1" width=".9" height=".9"/>
  <rect class="pixel" x="222" y="1" width=".9" height=".9"/>
  <rect class="pixel" x="223" y="1" width=".9" height=".9"/>
  <rect class="pixel" x="224" y="1" width=".9" height=".9"/>
  <rect class="pixel" x="225" y="1" width=".9" height=".9"/>
  <rect class="pixel" x="226" y="1" width=".9" height=".9"/>
  <rect class="pixel" x="227" y="1" width=".9" height=".9"/>
  <rect class="pixel" x="228" y="1" width=".9" height=".9"/>
  <rect class="pixel" x="229" y="1" width=".9" height=".9"/>
  <rect class="pixel" x="230" y="1" width=".9" height=".9"/>
  <rect class="pixel" x="231" y="1" width=".9" height=".9"/>
  <rect class="pixel" x="232" y="1" width=".9" height=".9"/>
  <rect class="pixel" x="233" y="1" width=".9" height=".9"/>
  <rect class="pixel" x="234" y="1" width=".9" height=".9"/>
  <rect class="pixel" x="235" y="1" width=".9" height=".9"/>
  <rect class="pixel" x="236" y="1" width=".9" height=".9"/>
  <rect class="pixel" x="237" y="1" width=".9" height=".9"/>
  <rect class="pixel" x="238" y="1" width=".9" height=".9"/>
  <rect class="pixel" x="239" y="1" width=".9" height=".9"/>
  <rect class="pixel" x="240" y="1" width=".9" height=".9"/>
  <rect class="pixel" x="241" y="1" width=".9" height=".9"/>
  <rect class="pixel" x="242" y="1" width=".9" height=".9"/>
  <rect class="pixel" x="243" y="1" width=".9" height=".9"/>
  <rect class="pixel" x="244" y="1" width=".9" height=".9"/>
  <rect class="pixel" x="245" y="1" width=".9" height=".9"/>
  <rect class="pixel" x="246" y="1" width=".9" height=".9"/>
  <rect class="pixel" x="247" y="1" width=".9" height=".9"/>
  <rect class="pixel" x="248" y="1" width=".9" height=".9"/>
  <rect class="pixel" x="249" y="1" width=".9" height=".9"/>
  <rect class="pixel" x="250" y="1" width=".9" height=".9"/>
  <rect class="pixel" x="251" y="1" width=".9" height=".9"/>
  <rect class="pixel" x="252" y="1" width=".9" height=".9"/>
  <rect class="pixel" x="253" y="1" width=".9" height=".9"/>
  <rect class="pixel" x="254" y="1" width=".9" height=".9"/>
  <rect class="pixel" x="255" y="1" width=".9" height=".9"/>
  <rect class="pixel" x="256" y="1" width=".9" height=".9"/>
  <rect class="pixel" x="257" y="1" width=".9" height=".9"/>
  <rect class="pixel" x="258" y="1" width=".9" height=".9"/>
  <rect class="pixel" x="259" y="1" width=".9" height=".9"/>
  <rect class="pixel" x="260" y="1" width=".9" height=".9"/>
  <rect class="pixel" x="261" y="1" width=".9" height=".9"/>
  <rect class="pixel" x="262" y="1" width=".9" height=".9"/>
  <rect class="pixel" x="263" y="1" width=".9" height=".9"/>
  <rect class="pixel" x="264" y="1" width=".9" height=".9"/>
  <rect class="pixel" x="265" y="1" width=".9" height=".9"/>
  <rect class="pixel" x="266" y="1" width=".9" height=".9"/>
  <rect class="pixel" x="267" y="1" width=".9" height=".9"/>
  <rect class="pixel" x="268" y="1" width=".9" height=".9"/>
  <rect class="pixel" x="269" y="1" width=".9" height=".9"/>
  <rect class="pixel" x="270" y="1" width=".9" height=".9"/>
  <rect class="pixel" x="271" y="1" width=".9" height=".9"/>
  <rect class="pixel" x="272" y="1" width=".9" height=".9"/>
  <rect class="pixel" x="273" y="1" width=".9" height=".9"/>
  <rect class="pixel" x="274" y="1" width=".9" height=".9"/>
  <rect class="pixel" x="275" y="1" width=".9" height=".9"/>
  <rect class="pixel" x="276" y="1" width=".9" height=".9"/>
  <rect class="pixel" x="277" y="1" width=".9" height=".9"/>
  <rect class="pixel" x="278" y="1" width=".9" height=".9"/>
  <rect class="pixel" x="279" y="1" width=".9" height=".9"/>
  <rect class="pixel" x="280" y="1" width=".9" height=".9"/>
  <rect class="pixel" x="281" y="1" width=".9" height=".9"/>
  <rect class="pixel" x="282" y="1" width=".9" height=".9"/>
  <rect class="pixel" x="283" y="1" width=".9" height=".9"/>
  <rect class="pixel" x="284" y="1" width=".9" height=".9"/>
  <rect class="pixel" x="285" y="1" width=".9" height=".9"/>
  <rect class="pixel" x="286" y="1" width=".9" height=".9"/>
  <rect class="pixel" x="287" y="1" width=".9" height=".9"/>
  <rect class="pixel" x="288" y="1" width=".9" height=".9"/>
  <rect class="pixel" x="289" y="1" width=".9" height=".9"/>
  <rect class="pixel" x="290" y="1" width=".9" height=".9"/>
  <rect class="pixel" x="291" y="1" width=".9" height=".9"/>
  <rect class="pixel" x="292" y="1" width=".9" height=".9"/>
  <rect class="pixel" x="293" y="1" width=".9" height=".9"/>
  <rect class="pixel" x="294" y="1" width=".9" height=".9"/>
  <rect class="pixel" x="295" y="1" width=".9" height=".9"/>
  <rect class="pixel" x="296" y="1" width=".9" height=".9"/>
  <rect class="pixel" x="297" y="1" width=".9" height=".9"/>
  <rect class="pixel" x="298" y="1" width=".9" height=".9"/>
  <rect class="pixel" x="299" y="1" width=".9" height=".9"/>
  <rect class="pixel" x="300" y="1" width=".9" height=".9"/>
  <rect class="pixel" x="301" y="1" width=".9" height=".9"/>
  <rect class="pixel" x="302" y="1" width=".9" height=".9"/>
  <rect class="pixel" x="303" y="1" width=".9" height=".9"/>
  <rect class="pixel" x="304" y="1" width=".9" height=".9"/>
  <rect class="pixel" x="305" y="1" width=".9" height=".9"/>
  <rect class="pixel" x="306" y="1" width=".9" height=".9"/>
  <rect class="pixel" x="307" y="1" width=".9" height=".9"/>
  <rect class="pixel" x="308" y="1" width=".9" height=".9"/>
  <rect class="pixel" x="309" y="1" width=".9" height=".9"/>
  <rect class="pixel" x="310" y="1" width=".9" height=".9"/>
  <rect class="pixel" x="311" y="1" width=".9" height=".9"/>
  <rect class="pixel" x="312" y="1" width=".9" height=".9"/>
  <rect class="pixel" x="313" y="1" width=".9" height=".9"/>
  <rect class="pixel" x="314" y="1" width=".9" height=".9"/>
  <rect class="pixel" x="315" y="1" width=".9" height=".9"/>
  <rect class="pixel" x="316" y="1" width=".9" height=".9"/>
  <rect class="pixel" x="317" y="1" width=".9" height=".9"/>
  <rect class="pixel" x="318" y="1" width=".9" height=".9"/>
  <rect class="pixel" x="319" y="1" width=".9" height=".9"/>
  <rect class="pixel" x="320" y="1" width=".9" height=".9"/>
  <rect class="pixel" x="321" y="1" width=".9" height=".9"/>
  <rect class="pixel" x="322" y="1" width=".9" height=".9"/>
  <rect class="pixel" x="323" y="1" width=".9" height=".9"/>
  <rect class="pixel" x="324" y="1" width=".9" height=".9"/>
  <rect class="pixel" x="325" y="1" width=".9" height=".9"/>
  <rect class="pixel" x="326" y="1" width=".9" height=".9"/>
  <rect class="pixel" x="327" y="1" width=".9" height=".9"/>
  <rect class="pixel" x="328" y="1" width=".9" height=".9"/>
  <rect class="pixel" x="329" y="1" width=".9" height=".9"/>
  <rect class="pixel" x="330" y="1" width=".9" height=".9"/>
  <rect class="pixel" x="331" y="1" width=".9" height=".9"/>
  <rect class="pixel" x="332" y="1" width=".9" height=".9"/>
  <rect class="pixel" x="333" y="1" width=".9" height=".9"/>
  <rect class="pixel" x="334" y="1" width=".9" height=".9"/>
  <rect class="pixel" x="335" y="1" width=".9" height=".9"/>
  <rect class="pixel" x="336" y="1" width=".9" height=".9"/>
  <rect class="pixel" x="337" y="1" width=".9" height=".9"/>
  <rect class="pixel" x="338" y="1" width=".9" height=".9"/>
  <rect class="pixel" x="339" y="1" width=".9" height=".9"/>
  <rect class="pixel" x="340" y="1" width=".9" height=".9"/>
  <rect class="pixel" x="341" y="1" width=".9" height=".9"/>
  <rect class="pixel" x="342" y="1" width=".9" height=".9"/>
  <rect class="pixel" x="343" y="1" width=".9" height=".9"/>
  <rect class="pixel" x="344" y="1" width=".9" height=".9"/>
  <rect class="pixel" x="345" y="1" width=".9" height=".9"/>
  <rect class="pixel" x="346" y="1" width=".9" height=".9"/>
  <rect class="pixel" x="347" y="1" width=".9" height=".9"/>
  <rect class="pixel" x="348" y="1" width=".9" height=".9"/>
  <rect class="pixel" x="349" y="1" width=".9" height=".9"/>
  <rect class="pixel" x="350" y="1" width=".9" height=".9"/>
  <rect class="pixel" x="351" y="1" width=".9" height=".9"/>
  <rect class="pixel" x="352" y="1" width=".9" height=".9"/>
  <rect class="pixel" x="353" y="1" width=".9" height=".9"/>
  <rect class="pixel" x="354" y="1" width=".9" height=".9"/>
  <rect class="pixel" x="355" y="1" width=".9" height=".9"/>
  <rect class="pixel" x="356" y="1" width=".9" height=".9"/>
  <rect class="pixel" x="357" y="1" width=".9" height=".9"/>
  <rect class="pixel" x="358" y="1" width=".9" height=".9"/>
  <rect class="pixel" x="359" y="1" width=".9" height=".9"/>
  <rect class="pixel" x="360" y="1" width=".9" height=".9"/>
  <rect class="pixel" x="361" y="1" width=".9" height=".9"/>
  <rect class="pixel" x="362" y="1" width=".9" height=".9"/>
  <rect class="pixel" x="363" y="1" width=".9" height=".9"/>
  <rect class="pixel" x="364" y="1" width=".9" height=".9"/>
  <rect class="pixel" x="365" y="1" width=".9" height=".9"/>
  <rect class="pixel" x="366" y="1" width=".9" height=".9"/>
  <rect class="pixel" x="367" y="1" width=".9" height=".9"/>
  <rect class="pixel" x="368" y="1" width=".9" height=".9"/>
  <rect class="pixel" x="369" y="1" width=".9" height=".9"/>
  <rect class="pixel" x="370" y="1" width=".9" height=".9"/>
  <rect class="pixel" x="371" y="1" width=".9" height=".9"/>
  <rect class="pixel" x="372" y="1" width=".9" height=".9"/>
  <rect class="pixel" x="373" y="1" width=".9" height=".9"/>
  <rect class="pixel" x="374" y="1" width=".9" height=".9"/>
  <rect class="pixel" x="375" y="1" width=".9" height=".9"/>
  <rect class="pixel" x="376" y="1" width=".9" height=".9"/>
  <rect class="pixel" x="377" y="1" width=".9" height=".9"/>
  <rect class="pixel" x="378" y="1" width=".9" height=".9"/>
  <rect class="pixel" x="379" y="1" width=".9" height=".9"/>
  <rect class="pixel" x="380" y="1" width=".9" height=".9"/>
  <rect class="pixel" x="381" y="1" width=".9" height=".9"/>
  <rect class="pixel" x="382" y="1" width=".9" height=".9"/>
  <rect class="pixel" x="383" y="1" width=".9" height=".9"/>
  <rect class="pixel" x="384" y="1" width=".9" height=".9"/>
</svg>
